<?xml version="1.0" encoding="UTF-8"?><svg id="Layer_2" xmlns="http://www.w3.org/2000/svg" viewBox="0 0 160 160"><defs><style>.cls-1{fill:#fff;}.cls-2{fill:#221f1f;}</style></defs><g id="Layer_1-2"><rect class="cls-2" width="160" height="160"/><path class="cls-1" d="m101.44,31.85c7.51,2.32,13.61,6.58,18.26,12.77,3.73,5.01,6.29,10.43,7.64,16.26,1.36,5.83,2.04,11.38,2.04,16.67,0,13.39-2.86,24.72-8.58,34.01-7.77,12.52-19.75,18.78-35.96,18.78h-46.22V29.66h46.22c6.64.09,12.17.82,16.6,2.19Zm-41.06,15.3v65.71h20.68c10.58,0,17.95-4.89,22.14-14.68,2.28-5.37,3.43-11.77,3.43-19.19,0-10.25-1.71-18.11-5.14-23.6-3.43-5.48-10.23-8.23-20.43-8.23h-20.68Z"/></g></svg>