<svg xmlns="http://www.w3.org/2000/svg" xmlns:xlink="http://www.w3.org/1999/xlink" width="174.818" height="45" viewBox="0 0 174.818 45">
  <defs>
    <clipPath id="clip-path">
      <path id="Path_8" data-name="Path 8" d="M77.215-47.869a2.334,2.334,0,0,1,.117.542c-2.675-.018-5.35,0-8.025-.008a.409.409,0,0,1-.229-.041c-.05-.042-.024-.085,0-.124a1.5,1.5,0,0,1,.151-.195,1.774,1.774,0,0,1,.168-.187.176.176,0,0,1,.133-.057c.082.007.164.009.247.009h6.343a.915.915,0,0,0,.257-.016.172.172,0,0,1,.042-.01,2.679,2.679,0,0,0,.627.032c.061,0,.128-.012.167.057" transform="translate(-69.05 47.958)" fill="none" clip-rule="evenodd"/>
    </clipPath>
    <clipPath id="clip-path-2">
      <path id="Path_7" data-name="Path 7" d="M-160-51.923H28.809V-158H-160Z" transform="translate(160 158)" fill="none"/>
    </clipPath>
    <clipPath id="clip-path-3">
      <path id="Path_11" data-name="Path 11" d="M62.387-33.741c0-.5-.016-1.008.018-1.51.006-.086.006-.172.009-.258a.712.712,0,0,1,0-.26c.023-.106.016-.215.037-.321.007-.038,0-.077.037-.106.431-.1.852-.24,1.279-.354.081-.021.059-.117.128-.136,0,.333-.02.667,0,1,.05.765.045,1.53.041,2.3a.266.266,0,0,1-.011.128c-.045-.039-.036-.093-.036-.143,0-.2,0-.392,0-.589,0-.12-.015-.133-.132-.1l-1.188.34c-.058.016-.118.051-.181.013" transform="translate(-62.382 36.687)" fill="none" clip-rule="evenodd"/>
    </clipPath>
    <clipPath id="clip-path-5">
      <path id="Path_14" data-name="Path 14" d="M68.627-52.769a2.861,2.861,0,0,1,.466-.5.33.33,0,0,1,.182-.039h6.075a.314.314,0,0,1,.181.039,3.063,3.063,0,0,1,.476.493c-.02.047-.063.055-.106.06a1.164,1.164,0,0,1-.141,0q-3.447,0-6.895,0c-.081,0-.176.031-.237-.06" transform="translate(-68.627 53.304)" fill="none" clip-rule="evenodd"/>
    </clipPath>
    <clipPath id="clip-path-7">
      <path id="Path_17" data-name="Path 17" d="M77.835-48.579a2.149,2.149,0,0,0-.53-.021c-.093,0-.188.02-.268-.049a.4.4,0,0,1-.063-.051.314.314,0,0,0,.063.052c-.043.053-.1.047-.162.047h-6.6a.7.7,0,0,1-.173-.025.063.063,0,0,1,.019-.063,2.756,2.756,0,0,1,.484-.432.079.079,0,0,1,.045-.011.148.148,0,0,1,.039.012,1.665,1.665,0,0,0,.212.009H76.13a.369.369,0,0,0,.228-.031.087.087,0,0,1,.041-.016,5.14,5.14,0,0,0,1.122.048c.043,0,.086-.013.126.014a2.516,2.516,0,0,1,.189.518" transform="translate(-70.101 49.159)" fill="none" clip-rule="evenodd"/>
    </clipPath>
    <clipPath id="clip-path-9">
      <path id="Path_20" data-name="Path 20" d="M76.2-54.151H69.764a3.472,3.472,0,0,1,.918-.637.507.507,0,0,1,.163-.014c1.447,0,2.894,0,4.342,0a.306.306,0,0,1,.127.014,3.786,3.786,0,0,1,.888.64" transform="translate(-69.764 54.805)" fill="none" clip-rule="evenodd"/>
    </clipPath>
    <clipPath id="clip-path-11">
      <path id="Path_23" data-name="Path 23" d="M73.972-44.991l-.784.5a.276.276,0,0,1-.111.062,1.646,1.646,0,0,0-.258,0H67.67a.431.431,0,0,1-.219-.027c-.066-.094.022-.166.035-.249.045-.094.088-.19.137-.283.025-.047.053-.088.115-.084q2.984,0,5.969,0a1.162,1.162,0,0,1,.165,0c.046.007.1.013.1.077" transform="translate(-67.427 45.073)" fill="none" clip-rule="evenodd"/>
    </clipPath>
    <clipPath id="clip-path-13">
      <path id="Path_26" data-name="Path 26" d="M58.547-39.562a.758.758,0,0,1-.025.259,4.288,4.288,0,0,1-1.13-1.751,4.1,4.1,0,0,0-.642-1.339,1.835,1.835,0,0,0-.96-.684c0-.059.042-.025.068-.025a4.7,4.7,0,0,1,1.444.283,2.743,2.743,0,0,1,.4.215c.066.041.133.079.2.118a2.845,2.845,0,0,1,.337.76,7.906,7.906,0,0,1,.318,1.861,1.273,1.273,0,0,1-.014.3" transform="translate(-55.791 43.112)" fill="none" clip-rule="evenodd"/>
    </clipPath>
    <clipPath id="clip-path-15">
      <path id="Path_29" data-name="Path 29" d="M71.887-42.424a8.539,8.539,0,0,1-.965.546c-.039.017-.079.031-.119.047a.507.507,0,0,0-.219-.007q-1.583,0-3.167,0a.25.25,0,0,0-.127.014l-.477-.213c-.035-.015-.068-.041-.11-.028a.052.052,0,0,1-.013-.036,1.807,1.807,0,0,1,.094-.349c.014-.042.03-.083.089-.068a1.185,1.185,0,0,0,.235.013h4.541a.732.732,0,0,1,.164.007c.036.009.1,0,.075.074" transform="translate(-66.69 42.521)" fill="none" clip-rule="evenodd"/>
    </clipPath>
    <clipPath id="clip-path-17">
      <path id="Path_32" data-name="Path 32" d="M72.074-43.094c-.025-.073-.086-.041-.131-.041l-4.776,0c-.047,0-.115.036-.138-.046a.083.083,0,0,1-.023-.07,3.144,3.144,0,0,1,.132-.356c.009-.024.02-.052.056-.045.043.042.1.023.146.023l5.346,0c.048,0,.113-.035.142.041a7.707,7.707,0,0,1-.754.494" transform="translate(-67.006 43.656)" fill="none" clip-rule="evenodd"/>
    </clipPath>
    <clipPath id="clip-path-19">
      <path id="Path_35" data-name="Path 35" d="M68.306-52a.229.229,0,0,0,.137.023h7.094A.268.268,0,0,0,75.685-52a2.584,2.584,0,0,1,.354.472.256.256,0,0,1-.218.062c-.62,0-1.239,0-1.859,0a.478.478,0,0,0-.094,0,.267.267,0,0,1-.125-.008,4.7,4.7,0,0,0-.469-.118,5.2,5.2,0,0,0-1.328-.135,4.835,4.835,0,0,0-.748.074.758.758,0,0,1-.2.017c-.879.007-1.758,0-2.638,0a.369.369,0,0,1-.279-.063,1.572,1.572,0,0,1,.223-.3" transform="translate(-68.083 52.005)" fill="none" clip-rule="evenodd"/>
    </clipPath>
    <clipPath id="clip-path-21">
      <path id="Path_38" data-name="Path 38" d="M74.348-45.561c-.039-.066-.1-.042-.16-.042l-5.964,0c-.049,0-.1.02-.146-.023s0-.074.014-.106c.047-.079.088-.163.138-.241a.105.105,0,0,1,.12-.06,1.055,1.055,0,0,0,.246.016q3.22,0,6.44,0c.071,0,.159-.034.209.057a4.2,4.2,0,0,0-.9.4" transform="translate(-68.064 46.039)" fill="none" clip-rule="evenodd"/>
    </clipPath>
    <clipPath id="clip-path-23">
      <path id="Path_41" data-name="Path 41" d="M77.165-49.627c.024.044-.009.058-.04.063a.7.7,0,0,1-.117.007H71.594c-.055,0-.122.024-.157-.047a1.11,1.11,0,0,1,.594-.365c.015,0,0,0,.012,0a1.248,1.248,0,0,0,.234.019h3.98a1.74,1.74,0,0,0,.316-.03c.508.018,1.015,0,1.523.007a.405.405,0,0,1,.15.014,1.639,1.639,0,0,1,.19.376.578.578,0,0,1-.2.024c-.215,0-.43,0-.645,0a.751.751,0,0,1-.428-.071,1.309,1.309,0,0,1-.111-.072.824.824,0,0,0,.11.072" transform="translate(-71.437 49.978)" fill="none" clip-rule="evenodd"/>
    </clipPath>
    <clipPath id="clip-path-25">
      <path id="Path_44" data-name="Path 44" d="M75.6-46.319c-.045-.037-.1-.019-.147-.019l-6.627,0c-.055,0-.121.023-.156-.048a.277.277,0,0,1,.166-.256.315.315,0,0,0,.213.046h7.9c.057,0,.12-.016.159.046a2.824,2.824,0,0,1,.018.7l-.041.027a1.405,1.405,0,0,0-.122-.153,1.348,1.348,0,0,0-1.3-.348c-.019,0-.038.007-.057.01" transform="translate(-68.673 46.644)" fill="none" clip-rule="evenodd"/>
    </clipPath>
    <clipPath id="clip-path-27">
      <path id="Path_47" data-name="Path 47" d="M76.638-55.6a.66.66,0,0,1-.208.027q-2.113,0-4.227,0a.651.651,0,0,1-.2-.025,4.241,4.241,0,0,1,1.244-.443,5.651,5.651,0,0,1,1.624-.12,4.032,4.032,0,0,1,1.764.561" transform="translate(-72.006 56.179)" fill="none" clip-rule="evenodd"/>
    </clipPath>
    <clipPath id="clip-path-29">
      <path id="Path_50" data-name="Path 50" d="M62.367-30.1c.465-.132.93-.266,1.4-.4.138-.038.139-.035.14.111q0,.382,0,.764c0,.037,0,.074,0,.111a.361.361,0,0,1-.169.076c-.4.111-.788.228-1.183.342-.149.043-.149.045-.149.2s0,.336,0,.5q.007.307,0,.614a1.9,1.9,0,0,1,0,.231c0,.039,0,.089-.053.1,0-.888-.007-1.775.016-2.663" transform="translate(-62.349 30.514)" fill="none" clip-rule="evenodd"/>
    </clipPath>
    <clipPath id="clip-path-31">
      <path id="Path_53" data-name="Path 53" d="M63.859-13.416c0,.337,0,.675,0,1.012,0,.057-.016.074-.073.074q-.718,0-1.436,0c-.057,0-.074-.018-.072-.074,0-.141,0-.282.006-.423.02-.055,0-.114.016-.169a.7.7,0,0,1,.282-.108c.368-.109.738-.213,1.107-.317.056-.016.113-.042.167,0" transform="translate(-62.281 13.442)" fill="none" clip-rule="evenodd"/>
    </clipPath>
    <clipPath id="clip-path-33">
      <path id="Path_56" data-name="Path 56" d="M68.147-40.909c0-.021-.018-.049.021-.051s.055,0,.082,0q1.657,0,3.314,0c.03,0,.1-.044.1.043a4.969,4.969,0,0,1-1.216.388,3.548,3.548,0,0,1-1.547-.063,4.472,4.472,0,0,1-.75-.319" transform="translate(-68.141 40.97)" fill="none" clip-rule="evenodd"/>
    </clipPath>
    <clipPath id="clip-path-35">
      <path id="Path_59" data-name="Path 59" d="M64.033-37.732c0,.13-.091.161-.2.191-.365.1-.728.208-1.091.315-.035.01-.068.023-.1-.011a.118.118,0,0,1-.027-.109c.032-.235.075-.468.125-.7a.132.132,0,0,1,.049-.09.551.551,0,0,0,.218-.029c.308-.09.618-.173.926-.268.047-.014.1-.04.146-.006q-.025.354-.05.708" transform="translate(-62.617 38.458)" fill="none" clip-rule="evenodd"/>
    </clipPath>
    <clipPath id="clip-path-37">
      <path id="Path_62" data-name="Path 62" d="M62.4-26.948c0-.2,0-.392,0-.587,0-.05,0-.09.063-.106q.731-.205,1.461-.415h.012c.008.228.011.455,0,.684a.139.139,0,0,1-.1.06c-.428.118-.852.248-1.279.366-.052.014-.1.041-.156,0" transform="translate(-62.399 28.056)" fill="none" clip-rule="evenodd"/>
    </clipPath>
    <clipPath id="clip-path-39">
      <path id="Path_65" data-name="Path 65" d="M62.4-25.962a4,4,0,0,0,.542-.143c.331-.091.66-.188.99-.282v.636a.221.221,0,0,1-.1.053c-.434.12-.863.252-1.3.373-.044.013-.09.034-.134,0q0-.318,0-.636" transform="translate(-62.402 26.386)" fill="none" clip-rule="evenodd"/>
    </clipPath>
    <clipPath id="clip-path-41">
      <path id="Path_68" data-name="Path 68" d="M61.821-39.98a3.853,3.853,0,0,0-.139.666.668.668,0,0,0-.026.23,1.227,1.227,0,0,0-.047.3c0,.041.013.086-.021.121a8.69,8.69,0,0,0-.341-2.18,3.551,3.551,0,0,0-.262-.628c-.018-.035-.059-.066-.039-.115a2.75,2.75,0,0,1,.931.915c.025.039.054.077.081.115.008.009.018.018.014.03a3.456,3.456,0,0,1-.151.543" transform="translate(-60.941 41.582)" fill="none" clip-rule="evenodd"/>
    </clipPath>
    <clipPath id="clip-path-43">
      <path id="Path_71" data-name="Path 71" d="M63.09-39.058a2.868,2.868,0,0,1,.137-.573l.025-.068c.343-.09.682-.193,1.023-.292.057-.016.117-.052.178-.009q-.045.318-.092.636l-1.173.332c-.036.01-.085.051-.1-.027" transform="translate(-63.09 40.02)" fill="none" clip-rule="evenodd"/>
    </clipPath>
    <clipPath id="clip-path-45">
      <path id="Path_74" data-name="Path 74" d="M62.373-24.408c.278-.079.555-.159.833-.235.233-.063.462-.145.7-.19,0,.165,0,.331,0,.5a2.467,2.467,0,0,1-.412.133c-.33.1-.662.191-.994.285-.047.013-.1.039-.146.006v-.166a1.182,1.182,0,0,0,.02-.329" transform="translate(-62.353 24.833)" fill="none" clip-rule="evenodd"/>
    </clipPath>
    <clipPath id="clip-path-47">
      <path id="Path_77" data-name="Path 77" d="M84.568-50.473a.229.229,0,0,1-.137.023H83.159a.493.493,0,0,1-.261-.024c-.02.018-.038.009-.057,0a.471.471,0,0,0-.092-.054.555.555,0,0,0-.129-.046.251.251,0,0,1-.041-.023.3.3,0,0,0-.133-.043.289.289,0,0,1-.061-.028,1.116,1.116,0,0,0-.163-.066c-.032-.014-.083-.011-.078-.068.039-.04.089-.022.134-.022h1.7a1.318,1.318,0,0,0,.361-.025,1.614,1.614,0,0,1,.227.38" transform="translate(-82.143 50.853)" fill="none" clip-rule="evenodd"/>
    </clipPath>
    <clipPath id="clip-path-49">
      <path id="Path_80" data-name="Path 80" d="M63.878-14.091a3.646,3.646,0,0,0-.62.159c-.312.083-.621.176-.932.265-.021-.032-.008-.068-.011-.1,0-.118,0-.236,0-.354.018-.049.064-.053.1-.065.442-.128.884-.25,1.325-.382.045-.014.091-.03.134.008,0,.157,0,.314,0,.471" transform="translate(-62.314 14.585)" fill="none" clip-rule="evenodd"/>
    </clipPath>
    <clipPath id="clip-path-51">
      <path id="Path_83" data-name="Path 83" d="M64.687-40.894c-.319.069-.625.186-.942.26-.084.02-.163.1-.26.041a3.665,3.665,0,0,1,.211-.633,2.971,2.971,0,0,1,.465-.15c.159-.053.32-.1.482-.14.054-.015.113-.039.166.009a.149.149,0,0,0,0,.023l-.123.589" transform="translate(-63.486 41.535)" fill="none" clip-rule="evenodd"/>
    </clipPath>
    <clipPath id="clip-path-53">
      <path id="Path_86" data-name="Path 86" d="M67.824-51.257c.546.056,1.094.016,1.641.024.43.007.861,0,1.292,0-.012.061-.067.059-.109.069a4.808,4.808,0,0,0-.726.213.252.252,0,0,1-.16.018c-.357-.007-.713,0-1.069,0-.294,0-.588,0-.881,0a.215.215,0,0,1-.167-.037,1.375,1.375,0,0,1,.179-.285" transform="translate(-67.645 51.257)" fill="none" clip-rule="evenodd"/>
    </clipPath>
    <clipPath id="clip-path-55">
      <path id="Path_89" data-name="Path 89" d="M66.716-49.343a2.564,2.564,0,0,1,.215-.495.126.126,0,0,1,.079-.018c.463.008.926,0,1.39,0a.307.307,0,0,1,.138.021c.064.063,0,.088-.039.113-.156.1-.316.2-.47.306-.069.045-.129.109-.221.106-.309,0-.618,0-.926,0a.214.214,0,0,1-.167-.036" transform="translate(-66.716 49.856)" fill="none" clip-rule="evenodd"/>
    </clipPath>
    <clipPath id="clip-path-57">
      <path id="Path_92" data-name="Path 92" d="M68.866-50.21c-.034-.04-.08-.024-.121-.024q-.659,0-1.318,0a.576.576,0,0,1-.185-.025,1.535,1.535,0,0,1,.165-.306h2.011c.045,0,.1-.019.132.026,0,.04-.03.052-.058.064-.18.086-.366.16-.539.26a.072.072,0,0,1-.088,0" transform="translate(-67.242 50.569)" fill="none" clip-rule="evenodd"/>
    </clipPath>
    <clipPath id="clip-path-59">
      <path id="Path_95" data-name="Path 95" d="M63.876-15.155c-.234.042-.456.128-.685.187-.29.075-.573.176-.866.238a2.259,2.259,0,0,1-.013-.379c.008-.059.056-.071.1-.083.432-.117.86-.249,1.291-.37a.254.254,0,0,1,.172-.016c0,.141,0,.283,0,.424" transform="translate(-62.31 15.589)" fill="none" clip-rule="evenodd"/>
    </clipPath>
    <clipPath id="clip-path-61">
      <path id="Path_98" data-name="Path 98" d="M62.352-23.2c.475-.136.951-.272,1.425-.41a.479.479,0,0,1,.127-.014,2.469,2.469,0,0,1,0,.377.931.931,0,0,1-.3.1c-.372.111-.746.217-1.12.322-.044.012-.09.036-.134,0,0-.126,0-.251,0-.377" transform="translate(-62.352 23.623)" fill="none" clip-rule="evenodd"/>
    </clipPath>
    <clipPath id="clip-path-63">
      <path id="Path_101" data-name="Path 101" d="M62.35-22.278c.311-.087.62-.177.933-.259A4.273,4.273,0,0,1,63.9-22.7v.354c-.026.053-.08.059-.128.073-.429.126-.862.242-1.29.372-.043.013-.09.035-.135,0q0-.189,0-.377" transform="translate(-62.349 22.702)" fill="none" clip-rule="evenodd"/>
    </clipPath>
    <clipPath id="clip-path-65">
      <path id="Path_104" data-name="Path 104" d="M65.729-44l-.166.4a.166.166,0,0,1-.068.043c-.289.081-.575.171-.865.249-.037.01-.094.041-.105-.037A3.671,3.671,0,0,1,64.857-44c.256-.05.5-.141.754-.207.061-.016.125-.054.189,0l-.07.212" transform="translate(-64.525 44.232)" fill="none" clip-rule="evenodd"/>
    </clipPath>
    <clipPath id="clip-path-67">
      <path id="Path_107" data-name="Path 107" d="M66.279-45.188a4.223,4.223,0,0,0-.609.162c-.076.019-.15.045-.225.066-.038.01-.077.021-.109-.015l.143-.26a.926.926,0,0,1,.317-.45c.235-.047.46-.133.692-.188.048-.011.1-.038.146,0-.04.118-.133.209-.167.33-.085.106-.113.242-.189.354" transform="translate(-65.336 45.894)" fill="none" clip-rule="evenodd"/>
    </clipPath>
    <clipPath id="clip-path-69">
      <path id="Path_110" data-name="Path 110" d="M66.43-48.6h.994a.229.229,0,0,1,.136.023c.016.052-.029.068-.056.091a6.144,6.144,0,0,0-.507.455.151.151,0,0,1-.134.06c-.16-.007-.319,0-.478,0-.054,0-.111.008-.153-.038a3.652,3.652,0,0,1,.2-.587" transform="translate(-66.231 48.605)" fill="none" clip-rule="evenodd"/>
    </clipPath>
    <clipPath id="clip-path-71">
      <path id="Path_113" data-name="Path 113" d="M63.877-16.044l-1.485.424c-.022.006-.044.016-.066.023a1.456,1.456,0,0,1-.014-.313c.016-.055.066-.063.11-.075.437-.125.872-.256,1.309-.378a.14.14,0,0,1,.145.012Z" transform="translate(-62.311 16.377)" fill="none" clip-rule="evenodd"/>
    </clipPath>
    <clipPath id="clip-path-73">
      <path id="Path_116" data-name="Path 116" d="M64.214-42.42c.032.049.07.014.1,0,.313-.081.617-.194.934-.26v.07l-.143.425a3.337,3.337,0,0,0-.607.152,3.152,3.152,0,0,1-.5.129,2.922,2.922,0,0,1,.215-.521" transform="translate(-63.999 42.675)" fill="none" clip-rule="evenodd"/>
    </clipPath>
    <clipPath id="clip-path-75">
      <path id="Path_119" data-name="Path 119" d="M63.875-17.832c0,.1,0,.2,0,.306a.176.176,0,0,1-.1.059c-.43.123-.86.247-1.29.369-.055.016-.113.042-.169,0,0-.016,0,0,0-.011-.019-.309-.019-.31.275-.392.347-.1.691-.2,1.038-.3.08-.022.16-.071.249-.031" transform="translate(-62.306 17.847)" fill="none" clip-rule="evenodd"/>
    </clipPath>
    <clipPath id="clip-path-77">
      <path id="Path_122" data-name="Path 122" d="M62.347-21.391l1.553-.448v.306c-.019.04-.057.049-.1.059-.432.119-.86.247-1.29.37-.056.016-.113.041-.168-.005,0-.094,0-.188,0-.283" transform="translate(-62.347 21.838)" fill="none" clip-rule="evenodd"/>
    </clipPath>
    <clipPath id="clip-path-79">
      <path id="Path_125" data-name="Path 125" d="M63.867-18.219c-.488.138-.975.278-1.465.412-.072.02-.1.049-.09.12s0,.133,0,.2a.336.336,0,0,1,0,.306c0,.11,0,.22,0,.33q0,.2,0,.4c0,.125,0,.251,0,.376-.006.011-.012.011-.018,0,0-.66-.007-1.32.016-1.98a.324.324,0,0,1,.147-.069c.407-.115.813-.231,1.219-.351.061-.018.126-.054.19,0Z" transform="translate(-62.292 18.503)" fill="none" clip-rule="evenodd"/>
    </clipPath>
    <clipPath id="clip-path-81">
      <path id="Path_128" data-name="Path 128" d="M62.351-16.33q0-.153,0-.306a5.616,5.616,0,0,0,.675-.177c.293-.077.583-.165.874-.247v.306a3.423,3.423,0,0,0-.608.155c-.316.083-.628.179-.942.269" transform="translate(-62.351 17.061)" fill="none" clip-rule="evenodd"/>
    </clipPath>
    <clipPath id="clip-path-83">
      <path id="Path_131" data-name="Path 131" d="M63.9-19.86c0,.094,0,.189,0,.283a.23.23,0,0,1-.113.057q-.642.189-1.286.369c-.052.015-.1.041-.156,0,0-.094,0-.189,0-.283a.283.283,0,0,1,.135-.066c.413-.12.826-.24,1.241-.357.058-.016.119-.048.179,0" transform="translate(-62.339 19.884)" fill="none" clip-rule="evenodd"/>
    </clipPath>
    <clipPath id="clip-path-85">
      <path id="Path_134" data-name="Path 134" d="M62.338-18.709a5.7,5.7,0,0,0,.621-.164c.313-.079.618-.193.935-.26,0,.094,0,.189,0,.283a4.118,4.118,0,0,0-.621.165c-.312.083-.624.172-.935.259q0-.142,0-.283" transform="translate(-62.336 19.134)" fill="none" clip-rule="evenodd"/>
    </clipPath>
    <clipPath id="clip-path-87">
      <path id="Path_137" data-name="Path 137" d="M63.9-20.257a5.862,5.862,0,0,0-.711.188c-.282.075-.562.157-.844.236v-.283a4.753,4.753,0,0,1,.559-.175c.285-.088.573-.166.859-.247.044-.012.09-.034.135,0Z" transform="translate(-62.342 20.557)" fill="none" clip-rule="evenodd"/>
    </clipPath>
    <clipPath id="clip-path-89">
      <path id="Path_140" data-name="Path 140" d="M63.9-20.855c-.476.136-.951.272-1.427.41a.481.481,0,0,1-.127.014c0-.079,0-.157,0-.236a1.4,1.4,0,0,0,.4-.1c.387-.107.772-.219,1.157-.329,0,.079,0,.157,0,.236" transform="translate(-62.345 21.09)" fill="none" clip-rule="evenodd"/>
    </clipPath>
    <clipPath id="clip-path-91">
      <path id="Path_143" data-name="Path 143" d="M66.066-47.172l.535,0a.245.245,0,0,1,.136.024c.014.041-.018.063-.038.09-.1.1-.184.208-.276.313-.038.045-.075.09-.142.086-.109-.025-.228.028-.33-.044a4.167,4.167,0,0,1,.115-.472" transform="translate(-65.95 47.172)" fill="none" clip-rule="evenodd"/>
    </clipPath>
    <clipPath id="clip-path-93">
      <path id="Path_146" data-name="Path 146" d="M65.794-46.02a1.276,1.276,0,0,1,.364.026c0,.125-.1.179-.169.258a3.424,3.424,0,0,0-.3.424,4.92,4.92,0,0,1,.109-.708" transform="translate(-65.685 46.02)" fill="none" clip-rule="evenodd"/>
    </clipPath>
    <clipPath id="clip-path-95">
      <path id="Path_149" data-name="Path 149" d="M62.3-12.572h.018c0,.032,0,.063,0,.094-.008.055.018.113-.019.164,0-.086,0-.172,0-.258" transform="translate(-62.296 12.572)" fill="none" clip-rule="evenodd"/>
    </clipPath>
    <clipPath id="clip-path-97">
      <path id="Path_152" data-name="Path 152" d="M55.719-43.115c-.023.009-.052,0-.068.025l-.1-.024a.185.185,0,0,1,.164,0" transform="translate(-55.555 43.134)" fill="none" clip-rule="evenodd"/>
    </clipPath>
    <clipPath id="clip-path-99">
      <path id="Path_155" data-name="Path 155" d="M66.425-46.523c.03-.1.135-.157.169-.258a3.715,3.715,0,0,0,.28-.315,1.2,1.2,0,0,1,.1-.086c.183-.038.361-.1.541-.149.063-.017.129-.044.189.009l-.188.26a1.009,1.009,0,0,0-.166.257l-.068.072c-.257.04-.5.144-.749.2-.034.007-.068.009-.1.014" transform="translate(-66.425 47.355)" fill="none" clip-rule="evenodd"/>
    </clipPath>
    <clipPath id="clip-path-101">
      <path id="Path_158" data-name="Path 158" d="M68.484-48.369a2.265,2.265,0,0,0-.522.121c-.068.013-.134.074-.209.02l.048-.07.657-.59L68.626-49a1.59,1.59,0,0,0,.416-.091c.065-.013.131-.059.2-.006-.139.134-.3.244-.43.39l-.093.1a2.052,2.052,0,0,0-.233.236" transform="translate(-67.753 49.124)" fill="none" clip-rule="evenodd"/>
    </clipPath>
    <clipPath id="clip-path-103">
      <path id="Path_161" data-name="Path 161" d="M70.5-50.453a3.724,3.724,0,0,0-.511.126c-.041.008-.085.04-.1-.029l.542-.355.684-.328c.318-.111.643-.2.968-.285.249-.018.5-.061.745-.081a5.279,5.279,0,0,1,.856.018,4.284,4.284,0,0,1,.682.111c0,.038-.027.042-.053.05a1.962,1.962,0,0,1-.385-.046,4.92,4.92,0,0,0-2.037.165,5.08,5.08,0,0,0-.657.256.3.3,0,0,1-.145.043,3.3,3.3,0,0,0-.565.355H70.5" transform="translate(-69.884 51.418)" fill="none" clip-rule="evenodd"/>
    </clipPath>
    <clipPath id="clip-path-105">
      <path id="Path_164" data-name="Path 164" d="M86.86-48.066c-.065-.007-.091-.059-.122-.106a.238.238,0,0,1,.122.106Z" transform="translate(-86.738 48.172)" fill="none" clip-rule="evenodd"/>
    </clipPath>
    <clipPath id="clip-path-107">
      <path id="Path_167" data-name="Path 167" d="M86.421-48.407a.067.067,0,0,1,.072.042c-.041.025-.048-.014-.072-.042" transform="translate(-86.421 48.407)" fill="none" clip-rule="evenodd"/>
    </clipPath>
    <clipPath id="clip-path-109">
      <path id="Path_170" data-name="Path 170" d="M80.7-51.053a.051.051,0,0,0,.047-.023l.449.117c.006.025-.012.034-.031.042a1.989,1.989,0,0,1-.434-.093.037.037,0,0,1-.031-.043" transform="translate(-80.701 51.075)" fill="none" clip-rule="evenodd"/>
    </clipPath>
    <clipPath id="clip-path-111">
      <path id="Path_173" data-name="Path 173" d="M81.853-50.766l.024-.024.095.023c.078.061.189.047.262.119,0,.009,0,.02-.007.02a.5.5,0,0,1-.374-.138" transform="translate(-81.853 50.79)" fill="none" clip-rule="evenodd"/>
    </clipPath>
    <clipPath id="clip-path-113">
      <path id="Path_176" data-name="Path 176" d="M76.518-51.043a1.2,1.2,0,0,0,.38.118l.045.023a1.321,1.321,0,0,0,.143.047l.023.024a.659.659,0,0,1,.12.041.571.571,0,0,0,.116.053.048.048,0,0,0,.047.023.557.557,0,0,1-.236.048H73a.26.26,0,0,1-.187-.05,3.947,3.947,0,0,1,1.125-.42,4.665,4.665,0,0,1,1.3-.116c.268.016.534.059.8.091l.471.118" transform="translate(-72.816 51.259)" fill="none" clip-rule="evenodd"/>
    </clipPath>
    <clipPath id="clip-path-115">
      <path id="Path_179" data-name="Path 179" d="M85.18-49.274a.3.3,0,0,1-.169-.106.3.3,0,0,1,.169.106Z" transform="translate(-85.012 49.381)" fill="none" clip-rule="evenodd"/>
    </clipPath>
    <clipPath id="clip-path-117">
      <path id="Path_182" data-name="Path 182" d="M83.034-50.342a.145.145,0,0,1-.142-.047.158.158,0,0,1,.142.047" transform="translate(-82.892 50.39)" fill="none" clip-rule="evenodd"/>
    </clipPath>
    <clipPath id="clip-path-119">
      <path id="Path_185" data-name="Path 185" d="M83.413-50.169a.239.239,0,0,1-.118-.048.156.156,0,0,1,.142.047c-.008.009-.016.009-.024,0" transform="translate(-83.295 50.217)" fill="none" clip-rule="evenodd"/>
    </clipPath>
    <clipPath id="clip-path-121">
      <path id="Path_188" data-name="Path 188" d="M83.583-50.1h.024a.127.127,0,0,1,.094.047.138.138,0,0,1-.118-.047" transform="translate(-83.583 50.1)" fill="none" clip-rule="evenodd"/>
    </clipPath>
    <clipPath id="clip-path-123">
      <path id="Path_191" data-name="Path 191" d="M109.673-39.556a.739.739,0,0,1,.042-.083,3.172,3.172,0,0,1,1.836-1.23,4.908,4.908,0,0,1,1.659-.179,5.054,5.054,0,0,1,2.942,1.055,3.354,3.354,0,0,1,1.284,2.225,4.236,4.236,0,0,1,.043.575q0,4.228,0,8.456c0,.175,0,.176-.173.176h-2.33c-.171,0-.171,0-.171-.177,0-.99,0-1.979,0-2.969-.005-1.619,0-3.239-.023-4.859a1.781,1.781,0,0,0-1.556-1.826,1.893,1.893,0,0,0-2.175,1.556,1.6,1.6,0,0,0-.025.293q0,3.9,0,7.806c0,.176,0,.176-.172.176h-2.378c-.171,0-.171,0-.171-.177q0-3.891,0-7.782a1.888,1.888,0,0,0-1.572-1.859,1.8,1.8,0,0,0-2.168,1.568,1.5,1.5,0,0,0-.02.175c-.008,1.225-.017,2.451-.02,3.677q-.006,2.123,0,4.246c0,.118-.028.156-.151.155q-1.189-.008-2.377,0c-.123,0-.151-.039-.151-.155,0-2.894-.01-5.788.01-8.681a3.241,3.241,0,0,1,1.13-2.438,4.639,4.639,0,0,1,2.522-1.144,6.308,6.308,0,0,1,1.152-.068,3.99,3.99,0,0,1,2.368.791,5.61,5.61,0,0,1,.55.566c.027.028.047.062.1.131" transform="translate(-101.841 41.056)" fill="#2b80b3" clip-rule="evenodd"/>
    </clipPath>
    <clipPath id="clip-path-124">
      <path id="Path_190" data-name="Path 190" d="M-160-51.923H28.809V-158H-160Z" transform="translate(160 158)" fill="#2b80b3"/>
    </clipPath>
    <clipPath id="clip-path-125">
      <path id="Path_194" data-name="Path 194" d="M80.669-34.575c-.011-.235-.009-.473-.036-.706-.055-.471-.1-.945-.2-1.41a3.057,3.057,0,0,0-.6-1.336,1.757,1.757,0,0,0-1.8-.6,1.836,1.836,0,0,0-.978.781,5.179,5.179,0,0,0-.845,2.738,6,6,0,0,0,.092,1.457,4.453,4.453,0,0,0,.648,1.685,1.974,1.974,0,0,0,.851.763,1.709,1.709,0,0,0,1.523-.124,2.26,2.26,0,0,0,1.045-1.308,5.426,5.426,0,0,0,.295-1.938m-.15,4.923a1.223,1.223,0,0,1-.108.152,2.819,2.819,0,0,1-1.719.888,4.258,4.258,0,0,1-2.377-.4,4.814,4.814,0,0,1-2.2-2.229,6.535,6.535,0,0,1-.69-2.257,9.613,9.613,0,0,1-.09-1.387,7.252,7.252,0,0,1,1.65-4.622,4.508,4.508,0,0,1,2.749-1.624,5.065,5.065,0,0,1,1.4-.011,4.8,4.8,0,0,1,1.488.393,4.1,4.1,0,0,1,2.024,2.065,6.809,6.809,0,0,1,.55,1.873,10.941,10.941,0,0,1,.115,1.859c-.007.453-.018.906-.018,1.359,0,.476.018.953.017,1.429,0,1.146-.015,2.293-.02,3.439,0,.1-.034.127-.13.127q-1.224,0-2.448,0c-.1,0-.129-.035-.127-.13.006-.248,0-.5,0-.745,0-.045-.006-.091-.01-.136l-.057-.037" transform="translate(-73.33 41.189)" fill="#2b80b3" clip-rule="evenodd"/>
    </clipPath>
    <clipPath id="clip-path-127">
      <path id="Path_197" data-name="Path 197" d="M31.445-37.124v-4c0-.154,0-.154.158-.154.867,0,1.734,0,2.6,0,.119,0,.153.032.153.153,0,2.593.006,5.187-.007,7.781a1.933,1.933,0,0,0,1.415,1.882,1.9,1.9,0,0,0,2.323-1.5,1.956,1.956,0,0,0,.024-.317q0-3.914,0-7.828c0-.168,0-.168.168-.168.863,0,1.726,0,2.59,0,.117,0,.155.028.155.151,0,2.661.008,5.321-.008,7.982a4.279,4.279,0,0,1-.886,2.7,4.194,4.194,0,0,1-1.48,1.171,5.881,5.881,0,0,1-2.14.583,5.267,5.267,0,0,1-2.412-.454,4.138,4.138,0,0,1-1.968-1.583,3.955,3.955,0,0,1-.616-1.695,9.551,9.551,0,0,1-.07-1.082c-.009-1.206,0-2.412,0-3.619" transform="translate(-31.443 41.278)" fill="#2b80b3" clip-rule="evenodd"/>
    </clipPath>
    <clipPath id="clip-path-129">
      <path id="Path_200" data-name="Path 200" d="M12.354-41.219c-.1.279-.188.53-.279.781q-1.367,3.776-2.735,7.551-.75,2.071-1.5,4.143a.147.147,0,0,1-.164.112q-1.117,0-2.235,0a.154.154,0,0,1-.17-.122Q3.352-34.068,1.427-39.381L.821-41.059C.8-41.1.792-41.147.773-41.208c.057,0,.1-.01.146-.01.954,0,1.908,0,2.862,0A.189.189,0,0,1,4-41.066q1.225,3.724,2.458,7.445a.136.136,0,0,0,.016.044c.027.032.058.061.088.091.03-.029.075-.054.087-.09.112-.324.219-.649.326-.974q1.076-3.257,2.15-6.515a.188.188,0,0,1,.214-.158c.95.006,1.9,0,2.85,0Z" transform="translate(-0.773 41.222)" fill="#2b80b3" clip-rule="evenodd"/>
    </clipPath>
  </defs>
  <g id="Group_637" data-name="Group 637" transform="translate(-331 -30)">
    <g id="Group_631" data-name="Group 631" transform="translate(0 1)">
      <text id="By" transform="translate(410 49)" fill="#060505" font-size="16" font-family="Roboto-Regular, Roboto"><tspan x="0" y="0">By</tspan></text>
      <g id="Group_630" data-name="Group 630" transform="translate(-475.6 -473.145)">
        <g id="Group_8" data-name="Group 8" transform="translate(885.6 531.505)">
          <path id="Path_10-2" data-name="Path 10" d="M39.269,46.54h-.882c-.722,0-.754.038-.9.632l-1.6,7.43c-.134-.556-1.808-7.411-1.808-7.411-.153-.6-.2-.645-.92-.645h-1.5c-.728,0-.754.058-.926.639,0,0-1.776,6.753-1.917,7.29-.115-.543-1.552-7.29-1.552-7.29-.141-.594-.172-.639-.894-.639h-.946c-.722,0-.926.038-.767.767l2.492,10.746c.153.588.192.639.914.639h1.233c.747,0,.779-.057.958-.684,0,0,1.974-7.507,2.108-8.011.128.511,2.083,8.107,2.083,8.107.16.524.192.581.914.581H36.56c.747,0,.779-.07.939-.7,0,0,2.581-10.829,2.581-10.835.121-.562-.089-.613-.8-.613h0Z" transform="translate(-24.6 -46.336)" fill="#010101" fill-rule="evenodd"/>
          <path id="Path_11-2" data-name="Path 11" d="M58.491,46.54h-.875c-.722,0-.76.032-.76.767v7.034c-.256-.415-4.427-7.258-4.427-7.258-.319-.5-.39-.543-1.105-.543H50.4c-.716,0-.767.045-.767.767V57.925c0,.735.045.773.76.773h.869c.747,0,.773-.051.773-.773V51.057c.256.415,4.363,7.117,4.363,7.117.332.517.371.524,1.092.524h1c.735,0,.773-.032.773-.779V47.313c0-.735-.038-.767-.773-.767h0Z" transform="translate(-33.639 -46.336)" fill="#010101" fill-rule="evenodd"/>
          <path id="Path_12" data-name="Path 12" d="M74.767,53.062a3.383,3.383,0,0,0-1.342-1.252,11.72,11.72,0,0,0-2.6-.875,6.146,6.146,0,0,1-2.159-.786.837.837,0,0,1-.326-.658.786.786,0,0,1,.345-.671,2.647,2.647,0,0,1,1.578-.415,2.291,2.291,0,0,1,1.463.383,1.587,1.587,0,0,1,.486.722c.185.53.185.626.914.6l1.035-.038c.716-.032.818-.121.7-.773a3.535,3.535,0,0,0-1.15-2.064,5.078,5.078,0,0,0-3.418-1.016,6,6,0,0,0-2.37.422A3.317,3.317,0,0,0,66.4,47.887a3.2,3.2,0,0,0-.53,1.763,3.244,3.244,0,0,0,1.118,2.479,6.537,6.537,0,0,0,2.734,1.207c.99.249,1.629.428,1.9.524a1.918,1.918,0,0,1,.824.492,1,1,0,0,1,.224.664,1.367,1.367,0,0,1-.556,1.086,2.578,2.578,0,0,1-1.687.473,2.492,2.492,0,0,1-1.674-.53,2.4,2.4,0,0,1-.684-1.118c-.16-.569-.185-.645-.914-.575l-.984.1c-.716.064-.8.128-.664.7A5.71,5.71,0,0,0,66.9,57.745a5.108,5.108,0,0,0,3.514,1.08,6.715,6.715,0,0,0,2.619-.447A3.515,3.515,0,0,0,74.671,57a3.687,3.687,0,0,0,.581-1.981,3.751,3.751,0,0,0-.486-1.961h0Z" transform="translate(-39.354 -46.22)" fill="#010101" fill-rule="evenodd"/>
          <path id="Path_13-2" data-name="Path 13" d="M54.8,63.2V59.02L57.445,63.2Z" transform="translate(-35.506 -50.842)" fill="#ef4e30" fill-rule="evenodd"/>
        </g>
        <g id="Group_16" data-name="Group 16" transform="translate(924.976 526.145)">
          <g id="Group_115" data-name="Group 115" transform="translate(0 0)">
            <g id="Group_169" data-name="Group 169" transform="translate(21.652)">
              <g id="Group_3" data-name="Group 3" transform="translate(5.527 3.227)" clip-path="url(#clip-path)">
                <g id="Group_2" data-name="Group 2" transform="translate(-93.81 -45.069)" clip-path="url(#clip-path-2)">
                  <path id="Path_6" data-name="Path 6" d="M68-48.958H77.12v1.449H68Z" transform="translate(25.382 93.618)" fill="#90c23f"/>
                </g>
              </g>
              <g id="Group_5" data-name="Group 5" transform="translate(2.796 7.591)" clip-path="url(#clip-path-3)">
                <g id="Group_4" data-name="Group 4" transform="translate(-91.079 -49.685)" clip-path="url(#clip-path-2)">
                  <path id="Path_9" data-name="Path 9" d="M61.356-37.687H63.75v4.243H61.356Z" transform="translate(29.303 86.963)" fill="#83983e"/>
                </g>
              </g>
              <g id="Group_7" data-name="Group 7" transform="translate(5.354 1.177)" clip-path="url(#clip-path-5)">
                <g id="Group_6" data-name="Group 6" transform="translate(-93.637 -42.88)" clip-path="url(#clip-path-2)">
                  <path id="Path_12-2" data-name="Path 12" d="M67.627-54.3h8.2v1.445h-8.2Z" transform="translate(25.601 96.774)" fill="#a7ca3a"/>
                </g>
              </g>
              <g id="Group_9" data-name="Group 9" transform="translate(5.957 2.875)" clip-path="url(#clip-path-7)">
                <g id="Group_8-2" data-name="Group 8" transform="translate(-94.241 -44.577)" clip-path="url(#clip-path-2)">
                  <path id="Path_15" data-name="Path 15" d="M69.087-50.159h8.559v1.4H69.087Z" transform="translate(24.738 94.327)" fill="#96c43e"/>
                </g>
              </g>
              <g id="Group_11" data-name="Group 11" transform="translate(5.819 0.563)" clip-path="url(#clip-path-9)">
                <g id="Group_10" data-name="Group 10" transform="translate(-94.103 -42.265)" clip-path="url(#clip-path-2)">
                  <path id="Path_18" data-name="Path 18" d="M68.764-55.814H76.02v1.476H68.764Z" transform="translate(24.929 97.665)" fill="#accc3b"/>
                </g>
              </g>
              <g id="Group_13" data-name="Group 13" transform="translate(4.862 4.36)" clip-path="url(#clip-path-11)">
                <g id="Group_12" data-name="Group 12" transform="translate(-93.146 -46.251)" clip-path="url(#clip-path-2)">
                  <path id="Path_21" data-name="Path 21" d="M66.325-46.083h7.406v1.477H66.325Z" transform="translate(26.369 91.92)" fill="#86be42"/>
                </g>
              </g>
              <g id="Group_15" data-name="Group 15" transform="translate(0.097 5.082)" clip-path="url(#clip-path-13)">
                <g id="Group_14" data-name="Group 14" transform="translate(-88.38 -47.054)" clip-path="url(#clip-path-2)">
                  <path id="Path_24" data-name="Path 24" d="M54.791-44.172h3.595v4.653H54.791Z" transform="translate(33.179 90.792)" fill="#ccda52"/>
                </g>
              </g>
              <g id="Group_17" data-name="Group 17" transform="translate(4.56 5.361)" clip-path="url(#clip-path-15)">
                <g id="Group_16-2" data-name="Group 16" transform="translate(-92.844 -47.296)" clip-path="url(#clip-path-2)">
                  <path id="Path_27" data-name="Path 27" d="M65.689-43.551h6.038v1.527H65.689Z" transform="translate(26.745 90.425)" fill="#7ebc43"/>
                </g>
              </g>
              <g id="Group_19" data-name="Group 19" transform="translate(4.69 4.917)" clip-path="url(#clip-path-17)">
                <g id="Group_18" data-name="Group 18" transform="translate(-92.973 -46.831)" clip-path="url(#clip-path-2)">
                  <path id="Path_30" data-name="Path 30" d="M66-44.679h6.643v1.39H66Z" transform="translate(26.56 91.091)" fill="#82bd42"/>
                </g>
              </g>
              <g id="Group_21" data-name="Group 21" transform="translate(5.131 1.709)" clip-path="url(#clip-path-19)">
                <g id="Group_20" data-name="Group 20" transform="translate(-93.414 -43.412)" clip-path="url(#clip-path-2)">
                  <path id="Path_33" data-name="Path 33" d="M67.083-53h8.775v1.368H67.083Z" transform="translate(25.922 96.007)" fill="#a1c83b"/>
                </g>
              </g>
              <g id="Group_23" data-name="Group 23" transform="translate(5.123 3.982)" clip-path="url(#clip-path-21)">
                <g id="Group_22" data-name="Group 22" transform="translate(-93.407 -45.855)" clip-path="url(#clip-path-2)">
                  <path id="Path_36" data-name="Path 36" d="M67.023-47.073h8.016v1.311H67.023Z" transform="translate(25.957 92.504)" fill="#8cc142"/>
                </g>
              </g>
              <g id="Group_25" data-name="Group 25" transform="translate(6.505 2.54)" clip-path="url(#clip-path-23)">
                <g id="Group_24" data-name="Group 24" transform="translate(-94.788 -44.242)" clip-path="url(#clip-path-2)">
                  <path id="Path_39" data-name="Path 39" d="M70.437-50.978h7.818v1.263H70.437Z" transform="translate(23.942 94.81)" fill="#9ac63d"/>
                </g>
              </g>
              <g id="Group_27" data-name="Group 27" transform="translate(5.373 3.741)" clip-path="url(#clip-path-25)">
                <g id="Group_26" data-name="Group 26" transform="translate(-93.656 -45.607)" clip-path="url(#clip-path-2)">
                  <path id="Path_42" data-name="Path 42" d="M67.673-47.644h9.3v1.636h-9.3Z" transform="translate(25.574 92.842)" fill="#8dc141"/>
                </g>
              </g>
              <g id="Group_29" data-name="Group 29" transform="translate(6.738)" clip-path="url(#clip-path-27)">
                <g id="Group_28" data-name="Group 28" transform="translate(-95.021 -41.702)" clip-path="url(#clip-path-2)">
                  <path id="Path_45" data-name="Path 45" d="M71.006-57.25h5.451V-55.8H71.006Z" transform="translate(23.606 98.514)" fill="#b0ce38"/>
                </g>
              </g>
              <g id="Group_31" data-name="Group 31" transform="translate(2.783 10.007)" clip-path="url(#clip-path-29)">
                <g id="Group_30" data-name="Group 30" transform="translate(-91.066 -52.213)" clip-path="url(#clip-path-2)">
                  <path id="Path_48" data-name="Path 48" d="M61.336-31.558h2.381v3.917H61.336Z" transform="translate(29.315 83.344)" fill="#7f983c"/>
                </g>
              </g>
              <g id="Group_33" data-name="Group 33" transform="translate(2.755 16.757)" clip-path="url(#clip-path-31)">
                <g id="Group_32" data-name="Group 32" transform="translate(-91.038 -59.206)" clip-path="url(#clip-path-2)">
                  <path id="Path_51" data-name="Path 51" d="M61.278-14.492h2.4v1.952h-2.4Z" transform="translate(29.35 73.267)" fill="#6a542e"/>
                </g>
              </g>
              <g id="Group_35" data-name="Group 35" transform="translate(5.155 5.973)" clip-path="url(#clip-path-33)">
                <g id="Group_34" data-name="Group 34" transform="translate(-93.438 -47.931)" clip-path="url(#clip-path-2)">
                  <path id="Path_54" data-name="Path 54" d="M67.109-42.05h4.353v1.381H67.109Z" transform="translate(25.906 89.539)" fill="#7abb42"/>
                </g>
              </g>
              <g id="Group_37" data-name="Group 37" transform="translate(2.892 6.946)" clip-path="url(#clip-path-35)">
                <g id="Group_36" data-name="Group 36" transform="translate(-91.176 -48.96)" clip-path="url(#clip-path-2)">
                  <path id="Path_57" data-name="Path 57" d="M61.61-39.5H63.9v2.09H61.61Z" transform="translate(29.153 88.033)" fill="#80953c"/>
                </g>
              </g>
              <g id="Group_39" data-name="Group 39" transform="translate(2.803 11.027)" clip-path="url(#clip-path-37)">
                <g id="Group_38" data-name="Group 38" transform="translate(-91.086 -53.22)" clip-path="url(#clip-path-2)">
                  <path id="Path_60" data-name="Path 60" d="M61.4-29.057h2.366v1.971H61.4Z" transform="translate(29.278 81.868)" fill="#7b963d"/>
                </g>
              </g>
              <g id="Group_41" data-name="Group 41" transform="translate(2.804 11.683)" clip-path="url(#clip-path-39)">
                <g id="Group_40" data-name="Group 40" transform="translate(-91.088 -53.904)" clip-path="url(#clip-path-2)">
                  <path id="Path_63" data-name="Path 63" d="M61.4-27.386h2.352v1.916H61.4Z" transform="translate(29.276 80.881)" fill="#7a923b"/>
                </g>
              </g>
              <g id="Group_43" data-name="Group 43" transform="translate(2.206 5.694)" clip-path="url(#clip-path-41)">
                <g id="Group_42" data-name="Group 42" transform="translate(-90.489 -47.681)" clip-path="url(#clip-path-2)">
                  <path id="Path_66" data-name="Path 66" d="M59.905-42.582h1.868v3.742H59.905Z" transform="translate(30.16 89.853)" fill="#91c341"/>
                </g>
              </g>
              <g id="Group_45" data-name="Group 45" transform="translate(3.086 6.338)" clip-path="url(#clip-path-43)">
                <g id="Group_44" data-name="Group 44" transform="translate(-91.37 -48.32)" clip-path="url(#clip-path-2)">
                  <path id="Path_69" data-name="Path 69" d="M62.09-41.076h2.183v1.882H62.09Z" transform="translate(28.87 88.964)" fill="#7e933b"/>
                </g>
              </g>
              <g id="Group_47" data-name="Group 47" transform="translate(2.784 12.297)" clip-path="url(#clip-path-45)">
                <g id="Group_46" data-name="Group 46" transform="translate(-91.068 -54.54)" clip-path="url(#clip-path-2)">
                  <path id="Path_72" data-name="Path 72" d="M61.353-25.833h2.373v1.772H61.353Z" transform="translate(29.305 79.963)" fill="#788d3a"/>
                </g>
              </g>
              <g id="Group_49" data-name="Group 49" transform="translate(10.89 2.181)" clip-path="url(#clip-path-47)">
                <g id="Group_48" data-name="Group 48" transform="translate(-99.173 -43.884)" clip-path="url(#clip-path-2)">
                  <path id="Path_75" data-name="Path 75" d="M81.132-51.853H84.38v1.245H81.132Z" transform="translate(17.627 95.327)" fill="#9ec73c"/>
                </g>
              </g>
              <g id="Group_51" data-name="Group 51" transform="translate(2.768 16.289)" clip-path="url(#clip-path-49)">
                <g id="Group_50" data-name="Group 50" transform="translate(-91.051 -58.737)" clip-path="url(#clip-path-2)">
                  <path id="Path_78" data-name="Path 78" d="M61.293-15.621h2.392v1.753H61.293Z" transform="translate(29.341 73.934)" fill="#6b572e"/>
                </g>
              </g>
              <g id="Group_53" data-name="Group 53" transform="translate(3.248 5.744)" clip-path="url(#clip-path-51)">
                <g id="Group_52" data-name="Group 52" transform="translate(-91.531 -47.7)" clip-path="url(#clip-path-2)">
                  <path id="Path_81" data-name="Path 81" d="M62.486-42.583H64.63v1.837H62.486Z" transform="translate(28.636 89.854)" fill="#7c913b"/>
                </g>
              </g>
              <g id="Group_55" data-name="Group 55" transform="translate(4.952 2.016)" clip-path="url(#clip-path-53)">
                <g id="Group_54" data-name="Group 54" transform="translate(-93.235 -43.718)" clip-path="url(#clip-path-2)">
                  <path id="Path_84" data-name="Path 84" d="M66.645-52.257h3.931v1.16H66.645Z" transform="translate(26.18 95.565)" fill="#a0c83c"/>
                </g>
              </g>
              <g id="Group_57" data-name="Group 57" transform="translate(4.571 2.59)" clip-path="url(#clip-path-55)">
                <g id="Group_56" data-name="Group 56" transform="translate(-92.855 -44.292)" clip-path="url(#clip-path-2)">
                  <path id="Path_87" data-name="Path 87" d="M65.716-50.857h2.705v1.379H65.716Z" transform="translate(26.729 94.739)" fill="#9ac63d"/>
                </g>
              </g>
              <g id="Group_59" data-name="Group 59" transform="translate(4.787 2.298)" clip-path="url(#clip-path-57)">
                <g id="Group_58" data-name="Group 58" transform="translate(-93.07 -44)" clip-path="url(#clip-path-2)">
                  <path id="Path_90" data-name="Path 90" d="M66.242-51.605h3.129v1.216H66.242Z" transform="translate(26.418 95.181)" fill="#9dc73c"/>
                </g>
              </g>
              <g id="Group_61" data-name="Group 61" transform="translate(2.767 15.878)" clip-path="url(#clip-path-59)">
                <g id="Group_60" data-name="Group 60" transform="translate(-91.05 -58.326)" clip-path="url(#clip-path-2)">
                  <path id="Path_93" data-name="Path 93" d="M61.276-16.624h2.4v1.692h-2.4Z" transform="translate(29.351 74.526)" fill="#6d5b30"/>
                </g>
              </g>
              <g id="Group_63" data-name="Group 63" transform="translate(2.784 12.775)" clip-path="url(#clip-path-61)">
                <g id="Group_62" data-name="Group 62" transform="translate(-91.067 -55.036)" clip-path="url(#clip-path-2)">
                  <path id="Path_96" data-name="Path 96" d="M61.352-24.623h2.382v1.657H61.352Z" transform="translate(29.306 79.249)" fill="#78883a"/>
                </g>
              </g>
              <g id="Group_65" data-name="Group 65" transform="translate(2.782 13.136)" clip-path="url(#clip-path-63)">
                <g id="Group_64" data-name="Group 64" transform="translate(-91.066 -55.413)" clip-path="url(#clip-path-2)">
                  <path id="Path_99" data-name="Path 99" d="M61.349-23.7h2.372v1.653H61.349Z" transform="translate(29.308 78.706)" fill="#778439"/>
                </g>
              </g>
              <g id="Group_67" data-name="Group 67" transform="translate(3.674 4.686)" clip-path="url(#clip-path-65)">
                <g id="Group_66" data-name="Group 66" transform="translate(-91.957 -46.595)" clip-path="url(#clip-path-2)">
                  <path id="Path_102" data-name="Path 102" d="M63.525-45.293h2.094v1.815H63.525Z" transform="translate(28.023 91.453)" fill="#768b3a"/>
                </g>
              </g>
              <g id="Group_69" data-name="Group 69" transform="translate(4.006 4.035)" clip-path="url(#clip-path-67)">
                <g id="Group_68" data-name="Group 68" transform="translate(-92.289 -45.915)" clip-path="url(#clip-path-2)">
                  <path id="Path_105" data-name="Path 105" d="M64.336-46.939h2.117v1.791H64.336Z" transform="translate(27.544 92.426)" fill="#74883a"/>
                </g>
              </g>
              <g id="Group_71" data-name="Group 71" transform="translate(4.373 2.973)" clip-path="url(#clip-path-69)">
                <g id="Group_70" data-name="Group 70" transform="translate(-92.656 -44.804)" clip-path="url(#clip-path-2)">
                  <path id="Path_108" data-name="Path 108" d="M65.231-49.615h2.164v1.462H65.231Z" transform="translate(27.015 94.006)" fill="#94c43e"/>
                </g>
              </g>
              <g id="Group_73" data-name="Group 73" transform="translate(2.767 15.555)" clip-path="url(#clip-path-71)">
                <g id="Group_72" data-name="Group 72" transform="translate(-91.05 -58.003)" clip-path="url(#clip-path-2)">
                  <path id="Path_111" data-name="Path 111" d="M61.277-17.411h2.4V-15.8h-2.4Z" transform="translate(29.35 74.991)" fill="#6e6131"/>
                </g>
              </g>
              <g id="Group_75" data-name="Group 75" transform="translate(3.458 5.299)" clip-path="url(#clip-path-73)">
                <g id="Group_74" data-name="Group 74" transform="translate(-91.742 -47.233)" clip-path="url(#clip-path-2)">
                  <path id="Path_114" data-name="Path 114" d="M63-43.675h2.074v1.6H63Z" transform="translate(28.333 90.498)" fill="#798e3b"/>
                </g>
              </g>
              <g id="Group_77" data-name="Group 77" transform="translate(2.765 14.953)" clip-path="url(#clip-path-75)">
                <g id="Group_76" data-name="Group 76" transform="translate(-91.048 -57.401)" clip-path="url(#clip-path-2)">
                  <path id="Path_117" data-name="Path 117" d="M61.275-18.908h2.4v1.635h-2.4Z" transform="translate(29.351 75.875)" fill="#706732"/>
                </g>
              </g>
              <g id="Group_79" data-name="Group 79" transform="translate(2.782 13.477)" clip-path="url(#clip-path-77)">
                <g id="Group_78" data-name="Group 78" transform="translate(-91.065 -55.767)" clip-path="url(#clip-path-2)">
                  <path id="Path_120" data-name="Path 120" d="M61.347-22.838H63.72v1.6H61.347Z" transform="translate(29.309 78.196)" fill="#768038"/>
                </g>
              </g>
              <g id="Group_81" data-name="Group 81" transform="translate(2.759 14.685)" clip-path="url(#clip-path-79)">
                <g id="Group_80" data-name="Group 80" transform="translate(-91.043 -57.133)" clip-path="url(#clip-path-2)">
                  <path id="Path_123" data-name="Path 123" d="M61.279-19.563h2.4v3.283h-2.4Z" transform="translate(29.348 76.262)" fill="#706d33"/>
                </g>
              </g>
              <g id="Group_83" data-name="Group 83" transform="translate(2.783 15.275)" clip-path="url(#clip-path-81)">
                <g id="Group_82" data-name="Group 82" transform="translate(-91.067 -57.723)" clip-path="url(#clip-path-2)">
                  <path id="Path_126" data-name="Path 126" d="M61.351-18.061H63.72v1.55H61.351Z" transform="translate(29.306 75.375)" fill="#6f6432"/>
                </g>
              </g>
              <g id="Group_85" data-name="Group 85" transform="translate(2.779 14.244)" clip-path="url(#clip-path-83)">
                <g id="Group_84" data-name="Group 84" transform="translate(-91.062 -56.567)" clip-path="url(#clip-path-2)">
                  <path id="Path_129" data-name="Path 129" d="M61.339-20.94h2.375v1.616H61.339Z" transform="translate(29.313 77.074)" fill="#737436"/>
                </g>
              </g>
              <g id="Group_87" data-name="Group 87" transform="translate(2.777 14.426)" clip-path="url(#clip-path-85)">
                <g id="Group_86" data-name="Group 86" transform="translate(-91.061 -56.874)" clip-path="url(#clip-path-2)">
                  <path id="Path_132" data-name="Path 132" d="M61.336-20.134h2.376v1.526H61.336Z" transform="translate(29.315 76.599)" fill="#717034"/>
                </g>
              </g>
              <g id="Group_89" data-name="Group 89" transform="translate(2.78 13.981)" clip-path="url(#clip-path-87)">
                <g id="Group_88" data-name="Group 88" transform="translate(-91.063 -56.292)" clip-path="url(#clip-path-2)">
                  <path id="Path_135" data-name="Path 135" d="M61.342-21.595h2.374v1.559H61.342Z" transform="translate(29.311 77.461)" fill="#747837"/>
                </g>
              </g>
              <g id="Group_91" data-name="Group 91" transform="translate(2.781 13.774)" clip-path="url(#clip-path-89)">
                <g id="Group_90" data-name="Group 90" transform="translate(-91.064 -56.073)" clip-path="url(#clip-path-2)">
                  <path id="Path_138" data-name="Path 138" d="M61.345-22.09h2.373v1.479H61.345Z" transform="translate(29.31 77.754)" fill="#757c38"/>
                </g>
              </g>
              <g id="Group_93" data-name="Group 93" transform="translate(4.258 3.537)" clip-path="url(#clip-path-91)">
                <g id="Group_92" data-name="Group 92" transform="translate(-92.541 -45.391)" clip-path="url(#clip-path-2)">
                  <path id="Path_141" data-name="Path 141" d="M64.95-48.172H66.57v1.363H64.95Z" transform="translate(27.181 93.153)" fill="#8ec23f"/>
                </g>
              </g>
              <g id="Group_95" data-name="Group 95" transform="translate(4.149 3.987)" clip-path="url(#clip-path-93)">
                <g id="Group_94" data-name="Group 94" transform="translate(-92.432 -45.863)" clip-path="url(#clip-path-2)">
                  <path id="Path_144" data-name="Path 144" d="M64.685-47.077h1.3v1.551h-1.3Z" transform="translate(27.338 92.507)" fill="#8bc143"/>
                </g>
              </g>
              <g id="Group_97" data-name="Group 97" transform="translate(2.761 17.114)" clip-path="url(#clip-path-95)">
                <g id="Group_96" data-name="Group 96" transform="translate(-91.044 -59.562)" clip-path="url(#clip-path-2)">
                  <path id="Path_147" data-name="Path 147" d="M61.3-13.572h.856v1.078H61.3Z" transform="translate(29.339 72.725)" fill="#706732"/>
                </g>
              </g>
              <g id="Group_99" data-name="Group 99" transform="translate(0 5.128)" clip-path="url(#clip-path-97)">
                <g id="Group_98" data-name="Group 98" transform="translate(-88.283 -47.045)" clip-path="url(#clip-path-2)">
                  <path id="Path_150" data-name="Path 150" d="M54.555-44.172h.983v.879h-.983Z" transform="translate(33.319 90.792)" fill="#edefb5"/>
                </g>
              </g>
              <g id="Group_101" data-name="Group 101" transform="translate(4.452 3.462)" clip-path="url(#clip-path-99)">
                <g id="Group_100" data-name="Group 100" transform="translate(-92.735 -45.316)" clip-path="url(#clip-path-2)">
                  <path id="Path_153" data-name="Path 153" d="M65.425-48.408h2.094v1.672H65.425Z" transform="translate(26.901 93.293)" fill="#728539"/>
                </g>
              </g>
              <g id="Group_103" data-name="Group 103" transform="translate(4.996 2.768)" clip-path="url(#clip-path-101)">
                <g id="Group_102" data-name="Group 102" transform="translate(-93.279 -44.592)" clip-path="url(#clip-path-2)">
                  <path id="Path_156" data-name="Path 156" d="M66.753-50.193h2.307v1.8H66.753Z" transform="translate(26.117 94.347)" fill="#708339"/>
                </g>
              </g>
              <g id="Group_105" data-name="Group 105" transform="translate(5.869 1.95)" clip-path="url(#clip-path-103)">
                <g id="Group_104" data-name="Group 104" transform="translate(-94.152 -43.652)" clip-path="url(#clip-path-2)">
                  <path id="Path_159" data-name="Path 159" d="M68.884-52.45h5.3v1.962h-5.3Z" transform="translate(24.858 95.679)" fill="#6f8038"/>
                </g>
              </g>
              <g id="Group_107" data-name="Group 107" transform="translate(12.771 3.279)" clip-path="url(#clip-path-105)">
                <g id="Group_106" data-name="Group 106" transform="translate(-101.055 -44.982)" clip-path="url(#clip-path-2)">
                  <path id="Path_162" data-name="Path 162" d="M85.738-49.172h.942v.925h-.942Z" transform="translate(14.907 93.744)" fill="#90c23f"/>
                </g>
              </g>
              <g id="Group_109" data-name="Group 109" transform="translate(12.642 3.183)" clip-path="url(#clip-path-107)">
                <g id="Group_108" data-name="Group 108" transform="translate(-100.925 -44.885)" clip-path="url(#clip-path-2)">
                  <path id="Path_165" data-name="Path 165" d="M85.421-49.416h.891v.89h-.891Z" transform="translate(15.094 93.888)" fill="#8cb13e"/>
                </g>
              </g>
              <g id="Group_111" data-name="Group 111" transform="translate(10.299 2.09)" clip-path="url(#clip-path-109)">
                <g id="Group_110" data-name="Group 110" transform="translate(-98.582 -43.792)" clip-path="url(#clip-path-2)">
                  <path id="Path_168" data-name="Path 168" d="M79.695-52.076h1.323v.978H79.695Z" transform="translate(18.475 95.458)" fill="#7c943c"/>
                </g>
              </g>
              <g id="Group_113" data-name="Group 113" transform="translate(10.771 2.207)" clip-path="url(#clip-path-111)">
                <g id="Group_112" data-name="Group 112" transform="translate(-99.054 -43.909)" clip-path="url(#clip-path-2)">
                  <path id="Path_171" data-name="Path 171" d="M80.853-51.79h1.2v.981h-1.2Z" transform="translate(17.791 95.29)" fill="#849f3d"/>
                </g>
              </g>
              <g id="Group_115-2" data-name="Group 115" transform="translate(7.07 2.015)" clip-path="url(#clip-path-113)">
                <g id="Group_114" data-name="Group 114" transform="translate(-95.353 -43.717)" clip-path="url(#clip-path-2)">
                  <path id="Path_174" data-name="Path 174" d="M71.816-52.305H77.21v1.431H71.816Z" transform="translate(23.127 95.594)" fill="#9ec73c"/>
                </g>
              </g>
              <g id="Group_117" data-name="Group 117" transform="translate(12.064 2.784)" clip-path="url(#clip-path-115)">
                <g id="Group_116" data-name="Group 116" transform="translate(-100.348 -44.487)" clip-path="url(#clip-path-2)">
                  <path id="Path_177" data-name="Path 177" d="M84.012-50.381H85v.925h-.988Z" transform="translate(15.927 94.457)" fill="#96c43e"/>
                </g>
              </g>
              <g id="Group_119" data-name="Group 119" transform="translate(11.196 2.371)" clip-path="url(#clip-path-117)">
                <g id="Group_118" data-name="Group 118" transform="translate(-99.48 -44.073)" clip-path="url(#clip-path-2)">
                  <path id="Path_180" data-name="Path 180" d="M81.892-51.4h.961v.882h-.961Z" transform="translate(17.178 95.057)" fill="#89a53d"/>
                </g>
              </g>
              <g id="Group_121" data-name="Group 121" transform="translate(11.361 2.442)" clip-path="url(#clip-path-119)">
                <g id="Group_120" data-name="Group 120" transform="translate(-99.645 -44.144)" clip-path="url(#clip-path-2)">
                  <path id="Path_183" data-name="Path 183" d="M82.295-51.222h.961v.879h-.961Z" transform="translate(16.94 94.955)" fill="#8fb03d"/>
                </g>
              </g>
              <g id="Group_123" data-name="Group 123" transform="translate(11.479 2.489)" clip-path="url(#clip-path-121)">
                <g id="Group_122" data-name="Group 122" transform="translate(-99.762 -44.192)" clip-path="url(#clip-path-2)">
                  <path id="Path_186" data-name="Path 186" d="M82.583-51.1h.937v.867h-.937Z" transform="translate(16.77 94.883)" fill="#9ac63d"/>
                </g>
              </g>
            </g>
            <g id="Group_125" data-name="Group 125" transform="translate(40.802 5.448)" clip-path="url(#clip-path-123)">
              <g id="Group_124" data-name="Group 124" transform="translate(-107.24 -47.896)" clip-path="url(#clip-path-124)">
                <path id="Path_189" data-name="Path 189" d="M100.819-42.116h16.469v13.344H100.819Z" transform="translate(6.003 89.578)" fill="#2b80b3"/>
              </g>
            </g>
            <g id="Group_127" data-name="Group 127" transform="translate(29.175 5.393)" clip-path="url(#clip-path-125)">
              <g id="Group_126" data-name="Group 126" transform="translate(-95.563 -47.841)" clip-path="url(#clip-path-124)">
                <path id="Path_192" data-name="Path 192" d="M72.3-42.248H83.121V-28.73H72.3Z" transform="translate(22.84 89.656)" fill="#2b80b3"/>
              </g>
            </g>
            <g id="Group_129" data-name="Group 129" transform="translate(12.067 5.357)" clip-path="url(#clip-path-127)">
              <g id="Group_128" data-name="Group 128" transform="translate(-78.408 -47.805)" clip-path="url(#clip-path-124)">
                <path id="Path_195" data-name="Path 195" d="M30.434-42.279H40.85v13.471H30.434Z" transform="translate(47.561 89.674)" fill="#2b80b3"/>
              </g>
            </g>
            <g id="Group_131" data-name="Group 131" transform="translate(0 5.38)" clip-path="url(#clip-path-129)">
              <g id="Group_130" data-name="Group 130" transform="translate(-65.847 -47.828)" clip-path="url(#clip-path-124)">
                <path id="Path_198" data-name="Path 198" d="M-.227-42.224h12.4v13.41H-.227Z" transform="translate(65.664 89.642)" fill="#2b80b3"/>
              </g>
            </g>
          </g>
        </g>
      </g>
    </g>
    <g id="Group_636" data-name="Group 636" transform="translate(69)">
      <rect id="Rectangle_12" data-name="Rectangle 12" width="69" height="45" transform="translate(262 30)"/>
      <g id="Group_635" data-name="Group 635" transform="translate(0 1.734)">
        <path id="Path_1" data-name="Path 1" d="M125.823,120.182a3.277,3.277,0,0,1,1.7,1.186,4.035,4.035,0,0,1,.71,1.51,6.838,6.838,0,0,1,.189,1.548,5.912,5.912,0,0,1-.8,3.159,3.654,3.654,0,0,1-3.339,1.745H119.99v-9.35h4.292a5.578,5.578,0,0,1,1.542.2Zm-3.814,1.421v6.1h1.921a2.072,2.072,0,0,0,2.056-1.364,4.547,4.547,0,0,0,.318-1.782,4.161,4.161,0,0,0-.477-2.192,2.068,2.068,0,0,0-1.9-.764Z" transform="translate(151.277 -80.713)" fill="#fff"/>
        <path id="Path_2" data-name="Path 2" d="M366.451,126.365a1.734,1.734,0,0,0,.36.908,2.171,2.171,0,0,0,1.68.547,3.82,3.82,0,0,0,1.156-.144,1.042,1.042,0,0,0,.842-1.028.749.749,0,0,0-.412-.68,4.675,4.675,0,0,0-1.31-.415l-1.021-.21a6.627,6.627,0,0,1-2.07-.68,2.116,2.116,0,0,1-.953-1.918,2.482,2.482,0,0,1,.933-1.978,4.151,4.151,0,0,1,2.741-.788,4.4,4.4,0,0,1,2.576.742,2.6,2.6,0,0,1,1.118,2.156H370.2a1.265,1.265,0,0,0-.762-1.136,2.747,2.747,0,0,0-1.174-.222,2.35,2.35,0,0,0-1.247.289.9.9,0,0,0-.466.806.758.758,0,0,0,.46.71,6.035,6.035,0,0,0,1.255.367l1.656.367a4.368,4.368,0,0,1,1.632.643,2.115,2.115,0,0,1,.843,1.81,2.507,2.507,0,0,1-1,2.017,4.4,4.4,0,0,1-2.824.8,4.885,4.885,0,0,1-2.932-.791,2.556,2.556,0,0,1-1.067-2.173h1.882Z" transform="translate(-74.414 -80.713)" fill="#fff"/>
        <path id="Path_3" data-name="Path 3" d="M488.765,129.32H486.7v-9.35h2.065Z" transform="translate(-187.111 -80.705)" fill="#fff"/>
        <path id="Path_4" data-name="Path 4" d="M541.141,122.97a1.772,1.772,0,0,0-1.1-1.271,2.84,2.84,0,0,0-1.083-.2,2.421,2.421,0,0,0-1.877.809,3.521,3.521,0,0,0-.734,2.432,2.917,2.917,0,0,0,.8,2.315,2.705,2.705,0,0,0,1.809.68,2.417,2.417,0,0,0,1.629-.535,2.272,2.272,0,0,0,.782-1.4h-2.188v-1.482h3.94v4.994H541.61V127.97a4.458,4.458,0,0,1-1.026.887,3.808,3.808,0,0,1-1.924.449,4.128,4.128,0,0,1-3.078-1.222,4.492,4.492,0,0,1-1.251-3.36,4.772,4.772,0,0,1,1.264-3.455,4.451,4.451,0,0,1,3.342-1.3,4.561,4.561,0,0,1,2.895.858,3.145,3.145,0,0,1,1.254,2.142h-1.942Z" transform="translate(-231.063 -80.705)" fill="#fff"/>
        <path id="Path_5" data-name="Path 5" d="M668.97,119.98h2.18L675.1,126.5V119.98h1.938v9.35h-2.08l-4.052-6.634v6.634H668.97Z" transform="translate(-355.305 -80.713)" fill="#fff"/>
        <rect id="Rectangle_13" data-name="Rectangle 13" width="7.232" height="1.613" transform="translate(281.313 43.129)" fill="#fff"/>
        <rect id="Rectangle_14" data-name="Rectangle 14" width="7.232" height="1.613" transform="translate(281.313 39.266)" fill="#fff"/>
        <rect id="Rectangle_15" data-name="Rectangle 15" width="7.232" height="1.613" transform="translate(281.313 46.992)" fill="#fff"/>
        <path id="Path_6-2" data-name="Path 6" d="M119.98,302.112V292.75h2.067v3.57h3.869v-3.57h2.068v9.362h-2.068v-4.179h-3.869v4.179Z" transform="translate(151.287 -240.141)" fill="#fff"/>
        <path id="Path_7-2" data-name="Path 7" d="M264.543,301.087a5.131,5.131,0,0,1-6.172,0,5.364,5.364,0,0,1,0-7.3,5.131,5.131,0,0,1,6.172,0,5.383,5.383,0,0,1,0,7.3Zm-1.231-1.344a4.2,4.2,0,0,0,0-4.6,2.3,2.3,0,0,0-1.855-.813,2.336,2.336,0,0,0-1.865.81,4.162,4.162,0,0,0,0,4.608,2.336,2.336,0,0,0,1.865.81A2.3,2.3,0,0,0,263.312,299.743Z" transform="translate(24.904 -240.15)" fill="#fff"/>
        <path id="Path_8-2" data-name="Path 8" d="M407.15,292.91h2.113v5.5a3.063,3.063,0,0,0,.243,1.406,2.1,2.1,0,0,0,3.278,0,3.087,3.087,0,0,0,.242-1.406v-5.5h2.115v5.5a4.588,4.588,0,0,1-.492,2.322q-.919,1.522-3.5,1.522t-3.506-1.522a4.564,4.564,0,0,1-.492-2.322v-5.5Z" transform="translate(-113.705 -240.289)" fill="#fff"/>
        <path id="Path_9-2" data-name="Path 9" d="M545.84,299.3a1.734,1.734,0,0,0,.36.908,2.171,2.171,0,0,0,1.68.547,3.819,3.819,0,0,0,1.156-.144,1.042,1.042,0,0,0,.842-1.028.749.749,0,0,0-.412-.68,4.673,4.673,0,0,0-1.31-.415l-1.021-.21a6.628,6.628,0,0,1-2.07-.68,2.116,2.116,0,0,1-.953-1.918,2.482,2.482,0,0,1,.933-1.978,4.151,4.151,0,0,1,2.741-.788,4.4,4.4,0,0,1,2.576.742,2.6,2.6,0,0,1,1.118,2.155h-1.894a1.265,1.265,0,0,0-.762-1.136,2.746,2.746,0,0,0-1.174-.222,2.35,2.35,0,0,0-1.247.289.9.9,0,0,0-.466.806.757.757,0,0,0,.46.71,6.029,6.029,0,0,0,1.255.367l1.656.367a4.369,4.369,0,0,1,1.632.643,2.115,2.115,0,0,1,.843,1.81,2.507,2.507,0,0,1-1,2.017,4.4,4.4,0,0,1-2.824.8,4.886,4.886,0,0,1-2.932-.791,2.556,2.556,0,0,1-1.067-2.173h1.882Z" transform="translate(-239.949 -240.297)" fill="#fff"/>
        <rect id="Rectangle_16" data-name="Rectangle 16" width="7.328" height="1.613" transform="translate(314.406 56.484)" fill="#fff"/>
        <rect id="Rectangle_17" data-name="Rectangle 17" width="7.328" height="1.613" transform="translate(314.406 52.621)" fill="#fff"/>
        <rect id="Rectangle_18" data-name="Rectangle 18" width="7.328" height="1.613" transform="translate(314.406 60.348)" fill="#fff"/>
      </g>
    </g>
  </g>
</svg>
