<?xml version="1.0" encoding="utf-8"?>
<!-- Generator: Adobe Illustrator 26.0.1, SVG Export Plug-In . SVG Version: 6.00 Build 0)  -->
<svg version="1.1" id="Layer_2_00000168837053563166439380000008383434970717727892_"
	 xmlns="http://www.w3.org/2000/svg" xmlns:xlink="http://www.w3.org/1999/xlink" x="0px" y="0px" viewBox="0 0 663 152.9"
	 style="enable-background:new 0 0 663 152.9;" xml:space="preserve">
<style type="text/css">
	.st0{fill:#221F1F;}
	.st1{fill:#FFFFFF;}
	.st2{enable-background:new    ;}
	.st3{fill:#999999;}
</style>
<rect class="st0" width="255.8" height="152.9"/>
<path class="st1" d="M56,35.1c2.6,0.8,4.7,2.3,6.3,4.4c1.3,1.7,2.2,3.6,2.6,5.6s0.7,3.9,0.7,5.7c0,4.6-1,8.5-3,11.7
	C60,66.9,55.8,69,50.3,69h-16V34.4h15.9C52.5,34.4,54.4,34.6,56,35.1L56,35.1z M41.8,40.4V63H49c3.6,0,6.2-1.7,7.6-5.1
	c0.8-1.8,1.2-4,1.2-6.6c0-3.5-0.6-6.2-1.8-8.1s-3.5-2.8-7-2.8C49,40.4,41.8,40.4,41.8,40.4z"/>
<path class="st1" d="M111.3,58c0.2,1.5,0.7,2.6,1.3,3.4c1.2,1.3,3.3,2,6.2,2c1.8,0,3.2-0.2,4.3-0.5c2.1-0.7,3.1-2,3.1-3.8
	c0-1.1-0.5-1.9-1.5-2.5s-2.6-1.1-4.9-1.5l-3.8-0.8c-3.7-0.8-6.3-1.6-7.7-2.5c-2.4-1.5-3.5-3.9-3.5-7.1c0-2.9,1.2-5.4,3.5-7.3
	c2.3-2,5.7-2.9,10.2-2.9c3.7,0,6.9,0.9,9.6,2.8c2.6,1.8,4,4.5,4.1,8h-7c-0.1-2-1.1-3.4-2.8-4.2c-1.2-0.5-2.6-0.8-4.3-0.8
	c-1.9,0-3.5,0.4-4.6,1.1c-1.2,0.7-1.7,1.7-1.7,3c0,1.2,0.6,2,1.7,2.6c0.7,0.4,2.3,0.8,4.7,1.4l6.1,1.4c2.7,0.6,4.7,1.4,6,2.4
	c2.1,1.5,3.1,3.8,3.1,6.7s-1.2,5.5-3.7,7.5s-6,3-10.5,3s-8.2-1-10.9-2.9c-2.6-1.9-3.9-4.6-3.9-8.1L111.3,58L111.3,58z"/>
<path class="st1" d="M147,69h-7.6V34.3h7.6V69z"/>
<path class="st1" d="M178.2,45.5c-0.6-2.2-1.9-3.8-4.1-4.7c-1.2-0.5-2.6-0.7-4-0.7c-2.8,0-5.1,1-7,3c-1.8,2-2.7,5-2.7,9
	s1,6.9,2.9,8.6s4.2,2.5,6.7,2.5s4.5-0.7,6-2c1.6-1.3,2.5-3.1,2.9-5.2h-8.1v-5.5h14.6V69h-5.6v-5c-1.4,1.6-2.7,2.7-3.8,3.3
	c-1.9,1.1-4.3,1.7-7.1,1.7c-4.6,0-8.4-1.5-11.4-4.5c-3.1-3-4.6-7.2-4.6-12.5s1.6-9.6,4.7-12.8c3.1-3.2,7.2-4.8,12.4-4.8
	c4.4,0,8,1.1,10.7,3.2s4.2,4.8,4.6,7.9L178.2,45.5L178.2,45.5z"/>
<path class="st1" d="M191.5,34.3h8.1l14.6,24.2V34.3h7.2V69h-7.7l-15-24.6V69h-7.2L191.5,34.3L191.5,34.3z"/>
<rect x="71.6" y="48.7" class="st1" width="26.8" height="6"/>
<rect x="71.6" y="34.3" class="st1" width="26.8" height="6"/>
<rect x="71.6" y="63" class="st1" width="26.8" height="6"/>
<path class="st1" d="M34.3,118.5V83.8H42V97h14.3V83.8H64v34.7h-7.7V103H42v15.5H34.3z"/>
<path class="st1" d="M101.7,114.7c-2.6,2.6-6.4,3.8-11.4,3.8s-8.8-1.3-11.4-3.8c-3.5-3.1-5.3-7.6-5.3-13.5s1.8-10.5,5.3-13.5
	c2.6-2.6,6.4-3.8,11.4-3.8s8.8,1.3,11.4,3.8c3.5,3,5.3,7.5,5.3,13.5S105.3,111.6,101.7,114.7z M97.2,109.7c1.7-2,2.6-4.8,2.6-8.5
	s-0.8-6.5-2.6-8.5c-1.7-2-4-3-6.9-3s-5.2,1-6.9,3s-2.6,4.8-2.6,8.5s0.9,6.5,2.6,8.5s4,3,6.9,3S95.5,111.7,97.2,109.7z"/>
<path class="st1" d="M116.6,83.9h7.8v20.4c0,2.4,0.3,4.1,0.9,5.2c0.9,1.9,3,2.9,6.1,2.9s5.1-1,6.1-2.9c0.6-1.1,0.9-2.8,0.9-5.2V83.9
	h7.8v20.4c0,3.7-0.6,6.6-1.8,8.6c-2.3,3.8-6.6,5.6-13,5.6s-10.7-1.9-13-5.6c-1.2-2.1-1.8-4.9-1.8-8.6L116.6,83.9L116.6,83.9z"/>
<path class="st1" d="M162.7,107.5c0.2,1.5,0.7,2.6,1.3,3.4c1.2,1.3,3.3,2,6.2,2c1.8,0,3.2-0.2,4.3-0.5c2.1-0.7,3.1-1.9,3.1-3.8
	c0-1.1-0.5-1.9-1.5-2.5s-2.6-1.1-4.9-1.5l-3.8-0.8c-3.7-0.8-6.3-1.6-7.7-2.5c-2.4-1.5-3.5-3.9-3.5-7.1c0-2.9,1.1-5.4,3.5-7.3
	c2.3-1.9,5.7-2.9,10.2-2.9c3.7,0,6.9,0.9,9.6,2.8c2.6,1.8,4,4.5,4.1,8h-7c-0.1-2-1.1-3.4-2.8-4.2c-1.2-0.6-2.6-0.8-4.4-0.8
	c-1.9,0-3.5,0.4-4.6,1.1s-1.7,1.7-1.7,3c0,1.2,0.6,2.1,1.7,2.6c0.7,0.4,2.3,0.8,4.6,1.4l6.1,1.4c2.7,0.6,4.7,1.4,6.1,2.4
	c2.1,1.6,3.1,3.8,3.1,6.7s-1.2,5.5-3.7,7.5s-6,3-10.5,3s-8.2-1-10.9-2.9s-3.9-4.6-3.9-8.1L162.7,107.5L162.7,107.5z"/>
<rect x="194.3" y="98.2" class="st1" width="27.2" height="6"/>
<rect x="194.3" y="83.9" class="st1" width="27.2" height="6"/>
<rect x="194.3" y="112.5" class="st1" width="27.2" height="6"/>
<g class="st2">
	<path class="st3" d="M301.1,64.3V26.6h14.1c2.9,0,5.2,0.4,6.9,1.1c1.7,0.8,3.1,1.9,4.1,3.5c1,1.6,1.5,3.2,1.5,5
		c0,1.6-0.4,3.1-1.3,4.6c-0.9,1.4-2.2,2.6-4,3.4c2.3,0.7,4,1.8,5.3,3.4c1.2,1.6,1.8,3.5,1.8,5.7c0,1.8-0.4,3.4-1.1,4.9
		s-1.7,2.7-2.8,3.5c-1.1,0.8-2.5,1.4-4.1,1.9s-3.7,0.6-6.1,0.6L301.1,64.3L301.1,64.3z M306,42.4h8.2c2.2,0,3.8-0.1,4.8-0.4
		c1.3-0.4,2.2-1,2.9-1.9c0.6-0.9,1-2,1-3.3s-0.3-2.4-0.9-3.3c-0.6-1-1.5-1.6-2.6-2s-3-0.5-5.7-0.5H306V42.4z M306,59.8h9.4
		c1.6,0,2.7-0.1,3.4-0.2c1.1-0.2,2.1-0.5,2.9-1s1.4-1.2,1.9-2.1c0.5-0.9,0.7-2,0.7-3.2c0-1.4-0.4-2.6-1.1-3.7c-0.7-1-1.7-1.8-3-2.2
		s-3.1-0.6-5.5-0.6H306V59.8z"/>
	<path class="st3" d="M335.6,74.8l-0.5-4.3c1,0.3,1.9,0.4,2.6,0.4c1,0,1.9-0.2,2.5-0.5s1.1-0.8,1.5-1.4c0.3-0.5,0.8-1.6,1.4-3.4
		c0.1-0.3,0.2-0.6,0.4-1.1L333.2,37h5l5.7,15.8c0.7,2,1.4,4.1,2,6.3c0.5-2.1,1.2-4.2,1.9-6.2l5.8-15.9h4.6l-10.4,27.8
		c-1.1,3-2,5.1-2.6,6.2c-0.8,1.5-1.8,2.6-2.8,3.4c-1.1,0.7-2.3,1.1-3.8,1.1C337.7,75.4,336.7,75.2,335.6,74.8z"/>
</g>
<g class="st2">
	<path class="st3" d="M306.4,127.5l-9-37.7h7.8l5.7,25.9l6.9-25.9h9.1l6.6,26.3l5.8-26.3h7.7l-9.2,37.7h-8.1l-7.5-28.2l-7.5,28.2
		H306.4z"/>
	<path class="st3" d="M350.8,127.5V89.8h7.4l15.4,25.2V89.8h7.1v37.7h-7.6l-15.2-24.6v24.6H350.8z"/>
	<path class="st3" d="M386.9,115.2l7.4-0.7c0.4,2.5,1.4,4.3,2.7,5.5c1.4,1.2,3.2,1.7,5.5,1.7c2.5,0,4.3-0.5,5.5-1.6s1.9-2.2,1.9-3.6
		c0-0.9-0.3-1.7-0.8-2.3c-0.5-0.6-1.4-1.2-2.7-1.6c-0.9-0.3-2.9-0.9-6.1-1.6c-4.1-1-6.9-2.3-8.6-3.7c-2.3-2.1-3.5-4.6-3.5-7.6
		c0-1.9,0.5-3.7,1.6-5.4c1.1-1.7,2.7-2.9,4.7-3.8s4.5-1.3,7.4-1.3c4.7,0,8.3,1,10.7,3.1s3.6,4.8,3.8,8.3l-7.6,0.3
		c-0.3-1.9-1-3.3-2.1-4.2s-2.7-1.3-4.8-1.3c-2.2,0-3.9,0.5-5.2,1.4c-0.8,0.6-1.2,1.4-1.2,2.3s0.4,1.7,1.1,2.3c1,0.8,3.3,1.6,7,2.5
		s6.4,1.8,8.2,2.7c1.8,0.9,3.2,2.2,4.2,3.8s1.5,3.6,1.5,6c0,2.2-0.6,4.2-1.8,6.1c-1.2,1.9-2.9,3.3-5.1,4.2c-2.2,0.9-4.9,1.4-8.2,1.4
		c-4.8,0-8.4-1.1-11-3.3S387.3,119.4,386.9,115.2z"/>
	<path class="st3" d="M448.2,127.5l-13.5-37.7h8.3l9.5,27.9l9.2-27.9h8.1l-13.5,37.7H448.2z"/>
	<path class="st3" d="M473.6,89.8h7.6v20.4c0,3.2,0.1,5.3,0.3,6.3c0.3,1.5,1.1,2.8,2.3,3.7s2.9,1.4,5,1.4c2.2,0,3.8-0.4,4.9-1.3
		s1.8-2,2-3.3s0.3-3.4,0.3-6.4V89.8h7.6v19.8c0,4.5-0.2,7.7-0.6,9.6s-1.2,3.4-2.3,4.7c-1.1,1.3-2.6,2.3-4.4,3.1
		c-1.9,0.8-4.3,1.1-7.3,1.1c-3.6,0-6.3-0.4-8.2-1.2s-3.3-1.9-4.4-3.2c-1.1-1.3-1.8-2.7-2.1-4.2c-0.5-2.2-0.7-5.3-0.7-9.6L473.6,89.8
		L473.6,89.8z"/>
	<path class="st3" d="M511.7,127.5V89.8h16c4,0,7,0.3,8.8,1s3.3,1.9,4.4,3.6c1.1,1.7,1.6,3.7,1.6,5.9c0,2.8-0.8,5.2-2.5,7
		s-4.1,3-7.5,3.5c1.6,1,3,2,4.1,3.2c1.1,1.1,2.5,3.2,4.3,6.1l4.6,7.4h-9.1l-5.5-8.2c-2-2.9-3.3-4.8-4-5.5c-0.7-0.8-1.5-1.3-2.3-1.6
		s-2.1-0.4-3.8-0.4h-1.5v15.7H511.7z M519.3,105.7h5.6c3.7,0,5.9-0.2,6.8-0.5c0.9-0.3,1.6-0.8,2.1-1.6c0.5-0.8,0.8-1.7,0.8-2.8
		c0-1.3-0.3-2.3-1-3.1c-0.7-0.8-1.6-1.3-2.9-1.5c-0.6-0.1-2.5-0.1-5.6-0.1h-5.9v9.6H519.3z"/>
	<path class="st3" d="M583.7,127.5h-8.3l-3.3-8.6H557l-3.1,8.6h-8.1l14.7-37.7h8L583.7,127.5z M569.7,112.6l-5.2-14l-5.1,14H569.7z"
		/>
	<path class="st3" d="M587.7,127.5V89.8h11.4l6.8,25.7l6.8-25.7h11.4v37.7H617V97.8l-7.5,29.7h-7.3l-7.5-29.7v29.7H587.7z"/>
</g>
</svg>
